<?xml version="1.0" standalone="no"?>
<!DOCTYPE svg PUBLIC "-//W3C//DTD SVG 1.1//EN" "http://www.w3.org/Graphics/SVG/1.1/DTD/svg11.dtd">
<svg xmlns:xlink="http://www.w3.org/1999/xlink" width="37.037ex" height="9.843ex" style="vertical-align: -4.338ex;" viewBox="0 -2370 15946.3 4237.8" xmlns="http://www.w3.org/2000/svg">
<defs>
<path stroke-width="10" id="E1-MJMAIN-76" d="M338 431Q344 429 422 429Q479 429 503 431H508V385H497Q439 381 423 345Q421 341 356 172T288 -2Q283 -11 263 -11Q244 -11 239 -2Q99 359 98 364Q93 378 82 381T43 385H19V431H25L33 430Q41 430 53 430T79 430T104 429T122 428Q217 428 232 431H240V385H226Q187 384 184 370Q184 366 235 234L286 102L377 341V349Q377 363 367 372T349 383T335 385H331V431H338Z"></path>
<path stroke-width="10" id="E1-MJMAIN-61" d="M137 305T115 305T78 320T63 359Q63 394 97 421T218 448Q291 448 336 416T396 340Q401 326 401 309T402 194V124Q402 76 407 58T428 40Q443 40 448 56T453 109V145H493V106Q492 66 490 59Q481 29 455 12T400 -6T353 12T329 54V58L327 55Q325 52 322 49T314 40T302 29T287 17T269 6T247 -2T221 -8T190 -11Q130 -11 82 20T34 107Q34 128 41 147T68 188T116 225T194 253T304 268H318V290Q318 324 312 340Q290 411 215 411Q197 411 181 410T156 406T148 403Q170 388 170 359Q170 334 154 320ZM126 106Q126 75 150 51T209 26Q247 26 276 49T315 109Q317 116 318 175Q318 233 317 233Q309 233 296 232T251 223T193 203T147 166T126 106Z"></path>
<path stroke-width="10" id="E1-MJMAIN-72" d="M36 46H50Q89 46 97 60V68Q97 77 97 91T98 122T98 161T98 203Q98 234 98 269T98 328L97 351Q94 370 83 376T38 385H20V408Q20 431 22 431L32 432Q42 433 60 434T96 436Q112 437 131 438T160 441T171 442H174V373Q213 441 271 441H277Q322 441 343 419T364 373Q364 352 351 337T313 322Q288 322 276 338T263 372Q263 381 265 388T270 400T273 405Q271 407 250 401Q234 393 226 386Q179 341 179 207V154Q179 141 179 127T179 101T180 81T180 66V61Q181 59 183 57T188 54T193 51T200 49T207 48T216 47T225 47T235 46T245 46H276V0H267Q249 3 140 3Q37 3 28 0H20V46H36Z"></path>
<path stroke-width="10" id="E1-MJMAIN-28" d="M94 250Q94 319 104 381T127 488T164 576T202 643T244 695T277 729T302 750H315H319Q333 750 333 741Q333 738 316 720T275 667T226 581T184 443T167 250T184 58T225 -81T274 -167T316 -220T333 -241Q333 -250 318 -250H315H302L274 -226Q180 -141 137 -14T94 250Z"></path>
<path stroke-width="10" id="E1-MJMATHI-58" d="M42 0H40Q26 0 26 11Q26 15 29 27Q33 41 36 43T55 46Q141 49 190 98Q200 108 306 224T411 342Q302 620 297 625Q288 636 234 637H206Q200 643 200 645T202 664Q206 677 212 683H226Q260 681 347 681Q380 681 408 681T453 682T473 682Q490 682 490 671Q490 670 488 658Q484 643 481 640T465 637Q434 634 411 620L488 426L541 485Q646 598 646 610Q646 628 622 635Q617 635 609 637Q594 637 594 648Q594 650 596 664Q600 677 606 683H618Q619 683 643 683T697 681T738 680Q828 680 837 683H845Q852 676 852 672Q850 647 840 637H824Q790 636 763 628T722 611T698 593L687 584Q687 585 592 480L505 384Q505 383 536 304T601 142T638 56Q648 47 699 46Q734 46 734 37Q734 35 732 23Q728 7 725 4T711 1Q708 1 678 1T589 2Q528 2 496 2T461 1Q444 1 444 10Q444 11 446 25Q448 35 450 39T455 44T464 46T480 47T506 54Q523 62 523 64Q522 64 476 181L429 299Q241 95 236 84Q232 76 232 72Q232 53 261 47Q262 47 267 47T273 46Q276 46 277 46T280 45T283 42T284 35Q284 26 282 19Q279 6 276 4T261 1Q258 1 243 1T201 2T142 2Q64 2 42 0Z"></path>
<path stroke-width="10" id="E1-MJMAIN-29" d="M60 749L64 750Q69 750 74 750H86L114 726Q208 641 251 514T294 250Q294 182 284 119T261 12T224 -76T186 -143T145 -194T113 -227T90 -246Q87 -249 86 -250H74Q66 -250 63 -250T58 -247T55 -238Q56 -237 66 -225Q221 -64 221 250T66 725Q56 737 55 738Q55 746 60 749Z"></path>
<path stroke-width="10" id="E1-MJMAIN-2261" d="M56 444Q56 457 70 464H707Q722 456 722 444Q722 430 706 424H72Q56 429 56 444ZM56 237T56 250T70 270H707Q722 262 722 250T707 230H70Q56 237 56 250ZM56 56Q56 71 72 76H706Q722 70 722 56Q722 44 707 36H70Q56 43 56 56Z"></path>
<path stroke-width="10" id="E1-MJMATHI-3C3" d="M184 -11Q116 -11 74 34T31 147Q31 247 104 333T274 430Q275 431 414 431H552Q553 430 555 429T559 427T562 425T565 422T567 420T569 416T570 412T571 407T572 401Q572 357 507 357Q500 357 490 357T476 358H416L421 348Q439 310 439 263Q439 153 359 71T184 -11ZM361 278Q361 358 276 358Q152 358 115 184Q114 180 114 178Q106 141 106 117Q106 67 131 47T188 26Q242 26 287 73Q316 103 334 153T356 233T361 278Z"></path>
<path stroke-width="10" id="E1-MJMAIN-32" d="M109 429Q82 429 66 447T50 491Q50 562 103 614T235 666Q326 666 387 610T449 465Q449 422 429 383T381 315T301 241Q265 210 201 149L142 93L218 92Q375 92 385 97Q392 99 409 186V189H449V186Q448 183 436 95T421 3V0H50V19V31Q50 38 56 46T86 81Q115 113 136 137Q145 147 170 174T204 211T233 244T261 278T284 308T305 340T320 369T333 401T340 431T343 464Q343 527 309 573T212 619Q179 619 154 602T119 569T109 550Q109 549 114 549Q132 549 151 535T170 489Q170 464 154 447T109 429Z"></path>
<path stroke-width="10" id="E1-MJMAIN-31" d="M213 578L200 573Q186 568 160 563T102 556H83V602H102Q149 604 189 617T245 641T273 663Q275 666 285 666Q294 666 302 660V361L303 61Q310 54 315 52T339 48T401 46H427V0H416Q395 3 257 3Q121 3 100 0H88V46H114Q136 46 152 46T177 47T193 50T201 52T207 57T213 61V578Z"></path>
<path stroke-width="10" id="E1-MJMAIN-2B" d="M56 237T56 250T70 270H369V420L370 570Q380 583 389 583Q402 583 409 568V270H707Q722 262 722 250T707 230H409V-68Q401 -82 391 -82H389H387Q375 -82 369 -68V230H70Q56 237 56 250Z"></path>
<path stroke-width="10" id="E1-MJMATHI-63" d="M34 159Q34 268 120 355T306 442Q362 442 394 418T427 355Q427 326 408 306T360 285Q341 285 330 295T319 325T330 359T352 380T366 386H367Q367 388 361 392T340 400T306 404Q276 404 249 390Q228 381 206 359Q162 315 142 235T121 119Q121 73 147 50Q169 26 205 26H209Q321 26 394 111Q403 121 406 121Q410 121 419 112T429 98T420 83T391 55T346 25T282 0T202 -11Q127 -11 81 37T34 159Z"></path>
</defs>
<g stroke="currentColor" fill="currentColor" stroke-width="0" transform="matrix(1 0 0 -1 0 0)">
<g transform="translate(167,0)">
<g transform="translate(-11,0)">
<g transform="translate(2950,1407)">
 <use xlink:href="#E1-MJMAIN-76"></use>
 <use xlink:href="#E1-MJMAIN-61" x="533" y="0"></use>
 <use xlink:href="#E1-MJMAIN-72" x="1038" y="0"></use>
 <use xlink:href="#E1-MJMAIN-28" x="1435" y="0"></use>
 <use xlink:href="#E1-MJMATHI-58" x="1829" y="0"></use>
 <use xlink:href="#E1-MJMAIN-29" x="2686" y="0"></use>
</g>
<g transform="translate(0,-26)">
 <use xlink:href="#E1-MJMAIN-76"></use>
 <use xlink:href="#E1-MJMAIN-61" x="533" y="0"></use>
 <use xlink:href="#E1-MJMAIN-72" x="1038" y="0"></use>
 <use xlink:href="#E1-MJMAIN-28" x="1435" y="0"></use>
<g transform="translate(1829,0)">
 <use xlink:href="#E1-MJMATHI-58" x="0" y="0"></use>
 <use transform="scale(0.707)" xlink:href="#E1-MJMAIN-31" x="1178" y="-213"></use>
</g>
 <use xlink:href="#E1-MJMAIN-2B" x="3341" y="0"></use>
<g transform="translate(4346,0)">
 <use xlink:href="#E1-MJMATHI-58" x="0" y="0"></use>
 <use transform="scale(0.707)" xlink:href="#E1-MJMAIN-32" x="1178" y="-213"></use>
</g>
 <use xlink:href="#E1-MJMAIN-29" x="5636" y="0"></use>
</g>
<g transform="translate(2079,-1477)">
 <use xlink:href="#E1-MJMAIN-76"></use>
 <use xlink:href="#E1-MJMAIN-61" x="533" y="0"></use>
 <use xlink:href="#E1-MJMAIN-72" x="1038" y="0"></use>
 <use xlink:href="#E1-MJMAIN-28" x="1435" y="0"></use>
 <use xlink:href="#E1-MJMATHI-63" x="1829" y="0"></use>
<g transform="translate(2267,0)">
 <use xlink:href="#E1-MJMATHI-58" x="0" y="0"></use>
 <use transform="scale(0.707)" xlink:href="#E1-MJMAIN-31" x="1178" y="-213"></use>
</g>
 <use xlink:href="#E1-MJMAIN-29" x="3557" y="0"></use>
</g>
</g>
<g transform="translate(6020,0)">
<g transform="translate(0,1407)">
 <use xlink:href="#E1-MJMAIN-2261" x="277" y="0"></use>
<g transform="translate(1338,0)">
 <use xlink:href="#E1-MJMATHI-3C3" x="0" y="0"></use>
 <use transform="scale(0.707)" xlink:href="#E1-MJMAIN-32" x="816" y="497"></use>
 <use transform="scale(0.707)" xlink:href="#E1-MJMATHI-58" x="814" y="-461"></use>
</g>
</g>
<g transform="translate(0,-26)">
 <use xlink:href="#E1-MJMAIN-2261" x="277" y="0"></use>
<g transform="translate(1338,0)">
 <use xlink:href="#E1-MJMAIN-76"></use>
 <use xlink:href="#E1-MJMAIN-61" x="533" y="0"></use>
 <use xlink:href="#E1-MJMAIN-72" x="1038" y="0"></use>
</g>
 <use xlink:href="#E1-MJMAIN-28" x="2773" y="0"></use>
<g transform="translate(3167,0)">
 <use xlink:href="#E1-MJMATHI-58" x="0" y="0"></use>
 <use transform="scale(0.707)" xlink:href="#E1-MJMAIN-31" x="1178" y="-213"></use>
</g>
 <use xlink:href="#E1-MJMAIN-29" x="4457" y="0"></use>
 <use xlink:href="#E1-MJMAIN-2B" x="5073" y="0"></use>
<g transform="translate(6079,0)">
 <use xlink:href="#E1-MJMAIN-76"></use>
 <use xlink:href="#E1-MJMAIN-61" x="533" y="0"></use>
 <use xlink:href="#E1-MJMAIN-72" x="1038" y="0"></use>
</g>
 <use xlink:href="#E1-MJMAIN-28" x="7514" y="0"></use>
<g transform="translate(7908,0)">
 <use xlink:href="#E1-MJMATHI-58" x="0" y="0"></use>
 <use transform="scale(0.707)" xlink:href="#E1-MJMAIN-32" x="1178" y="-213"></use>
</g>
 <use xlink:href="#E1-MJMAIN-29" x="9198" y="0"></use>
</g>
<g transform="translate(0,-1477)">
 <use xlink:href="#E1-MJMAIN-2261" x="277" y="0"></use>
<g transform="translate(1338,0)">
 <use xlink:href="#E1-MJMATHI-63" x="0" y="0"></use>
 <use transform="scale(0.707)" xlink:href="#E1-MJMAIN-32" x="619" y="583"></use>
</g>
<g transform="translate(2566,0)">
 <use xlink:href="#E1-MJMAIN-76"></use>
 <use xlink:href="#E1-MJMAIN-61" x="533" y="0"></use>
 <use xlink:href="#E1-MJMAIN-72" x="1038" y="0"></use>
</g>
 <use xlink:href="#E1-MJMAIN-28" x="4001" y="0"></use>
<g transform="translate(4395,0)">
 <use xlink:href="#E1-MJMATHI-58" x="0" y="0"></use>
 <use transform="scale(0.707)" xlink:href="#E1-MJMAIN-31" x="1178" y="-213"></use>
</g>
 <use xlink:href="#E1-MJMAIN-29" x="5686" y="0"></use>
</g>
</g>
</g>
</g>
</svg>