<?xml version="1.0" standalone="no"?>
<!DOCTYPE svg PUBLIC "-//W3C//DTD SVG 1.1//EN" "http://www.w3.org/Graphics/SVG/1.1/DTD/svg11.dtd">
<svg xmlns:xlink="http://www.w3.org/1999/xlink" width="61.363ex" height="20.176ex" style="vertical-align: -9.505ex;" viewBox="0 -4594.6 26420 8686.8" xmlns="http://www.w3.org/2000/svg">
<defs>
<path stroke-width="10" id="E1-MJMATHI-3C3" d="M184 -11Q116 -11 74 34T31 147Q31 247 104 333T274 430Q275 431 414 431H552Q553 430 555 429T559 427T562 425T565 422T567 420T569 416T570 412T571 407T572 401Q572 357 507 357Q500 357 490 357T476 358H416L421 348Q439 310 439 263Q439 153 359 71T184 -11ZM361 278Q361 358 276 358Q152 358 115 184Q114 180 114 178Q106 141 106 117Q106 67 131 47T188 26Q242 26 287 73Q316 103 334 153T356 233T361 278Z"></path>
<path stroke-width="10" id="E1-MJMAIN-3D" d="M56 347Q56 360 70 367H707Q722 359 722 347Q722 336 708 328L390 327H72Q56 332 56 347ZM56 153Q56 168 72 173H708Q722 163 722 153Q722 140 707 133H70Q56 140 56 153Z"></path>
<path stroke-width="10" id="E1-MJMAIN-45" d="M128 619Q121 626 117 628T101 631T58 634H25V680H597V676Q599 670 611 560T625 444V440H585V444Q584 447 582 465Q578 500 570 526T553 571T528 601T498 619T457 629T411 633T353 634Q266 634 251 633T233 622Q233 622 233 621Q232 619 232 497V376H286Q359 378 377 385Q413 401 416 469Q416 471 416 473V493H456V213H416V233Q415 268 408 288T383 317T349 328T297 330Q290 330 286 330H232V196V114Q232 57 237 52Q243 47 289 47H340H391Q428 47 452 50T505 62T552 92T584 146Q594 172 599 200T607 247T612 270V273H652V270Q651 267 632 137T610 3V0H25V46H58Q100 47 109 49T128 61V619Z"></path>
<path stroke-width="10" id="E1-MJMAIN-5B" d="M118 -250V750H255V710H158V-210H255V-250H118Z"></path>
<path stroke-width="10" id="E1-MJMAIN-28" d="M94 250Q94 319 104 381T127 488T164 576T202 643T244 695T277 729T302 750H315H319Q333 750 333 741Q333 738 316 720T275 667T226 581T184 443T167 250T184 58T225 -81T274 -167T316 -220T333 -241Q333 -250 318 -250H315H302L274 -226Q180 -141 137 -14T94 250Z"></path>
<path stroke-width="10" id="E1-MJMATHI-58" d="M42 0H40Q26 0 26 11Q26 15 29 27Q33 41 36 43T55 46Q141 49 190 98Q200 108 306 224T411 342Q302 620 297 625Q288 636 234 637H206Q200 643 200 645T202 664Q206 677 212 683H226Q260 681 347 681Q380 681 408 681T453 682T473 682Q490 682 490 671Q490 670 488 658Q484 643 481 640T465 637Q434 634 411 620L488 426L541 485Q646 598 646 610Q646 628 622 635Q617 635 609 637Q594 637 594 648Q594 650 596 664Q600 677 606 683H618Q619 683 643 683T697 681T738 680Q828 680 837 683H845Q852 676 852 672Q850 647 840 637H824Q790 636 763 628T722 611T698 593L687 584Q687 585 592 480L505 384Q505 383 536 304T601 142T638 56Q648 47 699 46Q734 46 734 37Q734 35 732 23Q728 7 725 4T711 1Q708 1 678 1T589 2Q528 2 496 2T461 1Q444 1 444 10Q444 11 446 25Q448 35 450 39T455 44T464 46T480 47T506 54Q523 62 523 64Q522 64 476 181L429 299Q241 95 236 84Q232 76 232 72Q232 53 261 47Q262 47 267 47T273 46Q276 46 277 46T280 45T283 42T284 35Q284 26 282 19Q279 6 276 4T261 1Q258 1 243 1T201 2T142 2Q64 2 42 0Z"></path>
<path stroke-width="10" id="E1-MJMAIN-2212" d="M84 237T84 250T98 270H679Q694 262 694 250T679 230H98Q84 237 84 250Z"></path>
<path stroke-width="10" id="E1-MJMATHI-3BC" d="M58 -216Q44 -216 34 -208T23 -186Q23 -176 96 116T173 414Q186 442 219 442Q231 441 239 435T249 423T251 413Q251 401 220 279T187 142Q185 131 185 107V99Q185 26 252 26Q261 26 270 27T287 31T302 38T315 45T327 55T338 65T348 77T356 88T365 100L372 110L408 253Q444 395 448 404Q461 431 491 431Q504 431 512 424T523 412T525 402L449 84Q448 79 448 68Q448 43 455 35T476 26Q485 27 496 35Q517 55 537 131Q543 151 547 152Q549 153 557 153H561Q580 153 580 144Q580 138 575 117T555 63T523 13Q510 0 491 -8Q483 -10 467 -10Q446 -10 429 -4T402 11T385 29T376 44T374 51L368 45Q362 39 350 30T324 12T288 -4T246 -11Q199 -11 153 12L129 -85Q108 -167 104 -180T92 -202Q76 -216 58 -216Z"></path>
<path stroke-width="10" id="E1-MJMAIN-29" d="M60 749L64 750Q69 750 74 750H86L114 726Q208 641 251 514T294 250Q294 182 284 119T261 12T224 -76T186 -143T145 -194T113 -227T90 -246Q87 -249 86 -250H74Q66 -250 63 -250T58 -247T55 -238Q56 -237 66 -225Q221 -64 221 250T66 725Q56 737 55 738Q55 746 60 749Z"></path>
<path stroke-width="10" id="E1-MJMAIN-32" d="M109 429Q82 429 66 447T50 491Q50 562 103 614T235 666Q326 666 387 610T449 465Q449 422 429 383T381 315T301 241Q265 210 201 149L142 93L218 92Q375 92 385 97Q392 99 409 186V189H449V186Q448 183 436 95T421 3V0H50V19V31Q50 38 56 46T86 81Q115 113 136 137Q145 147 170 174T204 211T233 244T261 278T284 308T305 340T320 369T333 401T340 431T343 464Q343 527 309 573T212 619Q179 619 154 602T119 569T109 550Q109 549 114 549Q132 549 151 535T170 489Q170 464 154 447T109 429Z"></path>
<path stroke-width="10" id="E1-MJMAIN-5D" d="M22 710V750H159V-250H22V-210H119V710H22Z"></path>
<path stroke-width="10" id="E1-MJSZ2-221A" d="M1001 1150Q1017 1150 1020 1132Q1020 1127 741 244L460 -643Q453 -650 436 -650H424Q423 -647 423 -645T421 -640T419 -631T415 -617T408 -594T399 -560T385 -512T367 -448T343 -364T312 -259L203 119L138 41L111 67L212 188L264 248L472 -474L983 1140Q988 1150 1001 1150Z"></path>
<path stroke-width="10" id="E1-MJMAIN-2B" d="M56 237T56 250T70 270H369V420L370 570Q380 583 389 583Q402 583 409 568V270H707Q722 262 722 250T707 230H409V-68Q401 -82 391 -82H389H387Q375 -82 369 -68V230H70Q56 237 56 250Z"></path>
</defs>
<g stroke="currentColor" fill="currentColor" stroke-width="0" transform="matrix(1 0 0 -1 0 0)">
<g transform="translate(167,0)">
<g transform="translate(-11,0)">
 <use xlink:href="#E1-MJMATHI-3C3" x="0" y="3198"></use>
</g>
<g transform="translate(566,0)">
<g transform="translate(0,3198)">
 <use xlink:href="#E1-MJMAIN-3D" x="277" y="0"></use>
<g transform="translate(1338,0)">
 <use xlink:href="#E1-MJSZ2-221A" x="0" y="41"></use>
<rect stroke="none" width="5189" height="60" x="1005" y="1141"></rect>
<g transform="translate(1005,0)">
 <use xlink:href="#E1-MJMAIN-45" x="0" y="0"></use>
 <use xlink:href="#E1-MJMAIN-5B" x="686" y="0"></use>
 <use xlink:href="#E1-MJMAIN-28" x="969" y="0"></use>
 <use xlink:href="#E1-MJMATHI-58" x="1363" y="0"></use>
 <use xlink:href="#E1-MJMAIN-2212" x="2442" y="0"></use>
 <use xlink:href="#E1-MJMATHI-3BC" x="3447" y="0"></use>
<g transform="translate(4055,0)">
 <use xlink:href="#E1-MJMAIN-29" x="0" y="0"></use>
 <use transform="scale(0.707)" xlink:href="#E1-MJMAIN-32" x="557" y="583"></use>
</g>
 <use xlink:href="#E1-MJMAIN-5D" x="4906" y="0"></use>
</g>
</g>
</g>
<g transform="translate(0,1018)">
 <use xlink:href="#E1-MJMAIN-3D" x="277" y="0"></use>
<g transform="translate(1338,0)">
 <use xlink:href="#E1-MJSZ2-221A" x="0" y="41"></use>
<rect stroke="none" width="11350" height="60" x="1005" y="1141"></rect>
<g transform="translate(1005,0)">
 <use xlink:href="#E1-MJMAIN-45" x="0" y="0"></use>
 <use xlink:href="#E1-MJMAIN-5B" x="686" y="0"></use>
<g transform="translate(969,0)">
 <use xlink:href="#E1-MJMATHI-58" x="0" y="0"></use>
 <use transform="scale(0.707)" xlink:href="#E1-MJMAIN-32" x="1222" y="583"></use>
</g>
 <use xlink:href="#E1-MJMAIN-5D" x="2290" y="0"></use>
 <use xlink:href="#E1-MJMAIN-2B" x="2795" y="0"></use>
 <use xlink:href="#E1-MJMAIN-45" x="3800" y="0"></use>
 <use xlink:href="#E1-MJMAIN-5B" x="4486" y="0"></use>
 <use xlink:href="#E1-MJMAIN-2212" x="4769" y="0"></use>
 <use xlink:href="#E1-MJMAIN-32" x="5552" y="0"></use>
 <use xlink:href="#E1-MJMATHI-3BC" x="6057" y="0"></use>
 <use xlink:href="#E1-MJMATHI-58" x="6665" y="0"></use>
 <use xlink:href="#E1-MJMAIN-5D" x="7522" y="0"></use>
 <use xlink:href="#E1-MJMAIN-2B" x="8028" y="0"></use>
 <use xlink:href="#E1-MJMAIN-45" x="9033" y="0"></use>
 <use xlink:href="#E1-MJMAIN-5B" x="9719" y="0"></use>
<g transform="translate(10002,0)">
 <use xlink:href="#E1-MJMATHI-3BC" x="0" y="0"></use>
 <use transform="scale(0.707)" xlink:href="#E1-MJMAIN-32" x="859" y="583"></use>
</g>
 <use xlink:href="#E1-MJMAIN-5D" x="11067" y="0"></use>
</g>
</g>
 <use xlink:href="#E1-MJMAIN-3D" x="13971" y="0"></use>
<g transform="translate(15032,0)">
 <use xlink:href="#E1-MJSZ2-221A" x="0" y="41"></use>
<rect stroke="none" width="9481" height="60" x="1005" y="1141"></rect>
<g transform="translate(1005,0)">
 <use xlink:href="#E1-MJMAIN-45" x="0" y="0"></use>
 <use xlink:href="#E1-MJMAIN-5B" x="686" y="0"></use>
<g transform="translate(969,0)">
 <use xlink:href="#E1-MJMATHI-58" x="0" y="0"></use>
 <use transform="scale(0.707)" xlink:href="#E1-MJMAIN-32" x="1222" y="583"></use>
</g>
 <use xlink:href="#E1-MJMAIN-5D" x="2290" y="0"></use>
 <use xlink:href="#E1-MJMAIN-2212" x="2795" y="0"></use>
 <use xlink:href="#E1-MJMAIN-32" x="3800" y="0"></use>
 <use xlink:href="#E1-MJMATHI-3BC" x="4305" y="0"></use>
 <use xlink:href="#E1-MJMAIN-45" x="5080" y="0"></use>
 <use xlink:href="#E1-MJMAIN-5B" x="5766" y="0"></use>
 <use xlink:href="#E1-MJMATHI-58" x="6049" y="0"></use>
 <use xlink:href="#E1-MJMAIN-5D" x="6906" y="0"></use>
 <use xlink:href="#E1-MJMAIN-2B" x="7411" y="0"></use>
<g transform="translate(8416,0)">
 <use xlink:href="#E1-MJMATHI-3BC" x="0" y="0"></use>
 <use transform="scale(0.707)" xlink:href="#E1-MJMAIN-32" x="859" y="583"></use>
</g>
</g>
</g>
</g>
<g transform="translate(0,-1162)">
 <use xlink:href="#E1-MJMAIN-3D" x="277" y="0"></use>
<g transform="translate(1338,0)">
 <use xlink:href="#E1-MJSZ2-221A" x="0" y="41"></use>
<rect stroke="none" width="7663" height="60" x="1005" y="1141"></rect>
<g transform="translate(1005,0)">
 <use xlink:href="#E1-MJMAIN-45" x="0" y="0"></use>
 <use xlink:href="#E1-MJMAIN-5B" x="686" y="0"></use>
<g transform="translate(969,0)">
 <use xlink:href="#E1-MJMATHI-58" x="0" y="0"></use>
 <use transform="scale(0.707)" xlink:href="#E1-MJMAIN-32" x="1222" y="583"></use>
</g>
 <use xlink:href="#E1-MJMAIN-5D" x="2290" y="0"></use>
 <use xlink:href="#E1-MJMAIN-2212" x="2795" y="0"></use>
 <use xlink:href="#E1-MJMAIN-32" x="3800" y="0"></use>
<g transform="translate(4305,0)">
 <use xlink:href="#E1-MJMATHI-3BC" x="0" y="0"></use>
 <use transform="scale(0.707)" xlink:href="#E1-MJMAIN-32" x="859" y="583"></use>
</g>
 <use xlink:href="#E1-MJMAIN-2B" x="5593" y="0"></use>
<g transform="translate(6598,0)">
 <use xlink:href="#E1-MJMATHI-3BC" x="0" y="0"></use>
 <use transform="scale(0.707)" xlink:href="#E1-MJMAIN-32" x="859" y="583"></use>
</g>
</g>
</g>
 <use xlink:href="#E1-MJMAIN-3D" x="10284" y="0"></use>
<g transform="translate(11345,0)">
 <use xlink:href="#E1-MJSZ2-221A" x="0" y="41"></use>
<rect stroke="none" width="4865" height="60" x="1005" y="1141"></rect>
<g transform="translate(1005,0)">
 <use xlink:href="#E1-MJMAIN-45" x="0" y="0"></use>
 <use xlink:href="#E1-MJMAIN-5B" x="686" y="0"></use>
<g transform="translate(969,0)">
 <use xlink:href="#E1-MJMATHI-58" x="0" y="0"></use>
 <use transform="scale(0.707)" xlink:href="#E1-MJMAIN-32" x="1222" y="583"></use>
</g>
 <use xlink:href="#E1-MJMAIN-5D" x="2290" y="0"></use>
 <use xlink:href="#E1-MJMAIN-2212" x="2795" y="0"></use>
<g transform="translate(3800,0)">
 <use xlink:href="#E1-MJMATHI-3BC" x="0" y="0"></use>
 <use transform="scale(0.707)" xlink:href="#E1-MJMAIN-32" x="859" y="583"></use>
</g>
</g>
</g>
</g>
<g transform="translate(0,-3342)">
 <use xlink:href="#E1-MJMAIN-3D" x="277" y="0"></use>
<g transform="translate(1338,0)">
 <use xlink:href="#E1-MJSZ2-221A" x="0" y="41"></use>
<rect stroke="none" width="7154" height="60" x="1005" y="1141"></rect>
<g transform="translate(1005,0)">
 <use xlink:href="#E1-MJMAIN-45" x="0" y="0"></use>
 <use xlink:href="#E1-MJMAIN-5B" x="686" y="0"></use>
<g transform="translate(969,0)">
 <use xlink:href="#E1-MJMATHI-58" x="0" y="0"></use>
 <use transform="scale(0.707)" xlink:href="#E1-MJMAIN-32" x="1222" y="583"></use>
</g>
 <use xlink:href="#E1-MJMAIN-5D" x="2290" y="0"></use>
 <use xlink:href="#E1-MJMAIN-2212" x="2795" y="0"></use>
 <use xlink:href="#E1-MJMAIN-28" x="3800" y="0"></use>
 <use xlink:href="#E1-MJMAIN-45" x="4194" y="0"></use>
 <use xlink:href="#E1-MJMAIN-5B" x="4880" y="0"></use>
 <use xlink:href="#E1-MJMATHI-58" x="5163" y="0"></use>
 <use xlink:href="#E1-MJMAIN-5D" x="6020" y="0"></use>
<g transform="translate(6303,0)">
 <use xlink:href="#E1-MJMAIN-29" x="0" y="0"></use>
 <use transform="scale(0.707)" xlink:href="#E1-MJMAIN-32" x="557" y="583"></use>
</g>
</g>
</g>
</g>
</g>
</g>
</g>
</svg>